<svg id="Layer_1" data-name="Layer 1" xmlns="http://www.w3.org/2000/svg" viewBox="0 0 400 300"><defs><style>.cls-1{font-size:12.51px;fill:#78374a;}.cls-1,.cls-47,.cls-66,.cls-72,.cls-76{font-family:MarkerFelt-Thin, Marker Felt;font-weight:200;}.cls-2{letter-spacing:-0.12em;}.cls-3{letter-spacing:0.04em;}.cls-4{letter-spacing:0.05em;}.cls-5{letter-spacing:0.04em;}.cls-6{letter-spacing:0.06em;}.cls-7{letter-spacing:0.03em;}.cls-8{letter-spacing:0.03em;}.cls-9{letter-spacing:0.06em;}.cls-10{letter-spacing:0.04em;}.cls-11{letter-spacing:0.03em;}.cls-12{letter-spacing:0.04em;}.cls-13{letter-spacing:0.08em;}.cls-14{letter-spacing:0.05em;}.cls-15{letter-spacing:0.04em;}.cls-16{letter-spacing:0.04em;}.cls-17{letter-spacing:-0.08em;}.cls-18{letter-spacing:0.02em;}.cls-19{letter-spacing:0.07em;}.cls-20{letter-spacing:0.05em;}.cls-21{letter-spacing:0.04em;}.cls-22{letter-spacing:0.06em;}.cls-23{letter-spacing:0.04em;}.cls-24{letter-spacing:0.06em;}.cls-25{letter-spacing:0.06em;}.cls-26{letter-spacing:0.05em;}.cls-27{letter-spacing:0.02em;}.cls-28{letter-spacing:0.08em;}.cls-29{letter-spacing:0.03em;}.cls-30{letter-spacing:0.03em;}.cls-31{letter-spacing:0.04em;}.cls-32{letter-spacing:0.02em;}.cls-33{letter-spacing:0.04em;}.cls-34{letter-spacing:0em;}.cls-35{letter-spacing:0.07em;}.cls-36{letter-spacing:0.03em;}.cls-37{letter-spacing:0.04em;}.cls-38{letter-spacing:0.03em;}.cls-39{letter-spacing:0.06em;}.cls-40{letter-spacing:0.04em;}.cls-41{letter-spacing:0.03em;}.cls-42{letter-spacing:0.02em;}.cls-43{letter-spacing:0.06em;}.cls-44{letter-spacing:-0.1em;}.cls-45{letter-spacing:-0.05em;}.cls-46,.cls-63{fill:#fff;}.cls-46{stroke:#231f20;}.cls-46,.cls-63,.cls-64,.cls-65{stroke-miterlimit:10;stroke-width:0.89px;}.cls-47{font-size:8.93px;fill:#231f20;}.cls-48{letter-spacing:0.03em;}.cls-49{letter-spacing:0.03em;}.cls-50{letter-spacing:0.02em;}.cls-51{letter-spacing:0.02em;}.cls-52{letter-spacing:0.06em;}.cls-53{letter-spacing:0.03em;}.cls-54{letter-spacing:0.04em;}.cls-55{letter-spacing:0.07em;}.cls-56{letter-spacing:0.03em;}.cls-57{letter-spacing:0.07em;}.cls-58{letter-spacing:0.05em;}.cls-59{letter-spacing:0.03em;}.cls-60{letter-spacing:-0.11em;}.cls-61{letter-spacing:0.08em;}.cls-62{letter-spacing:0.04em;}.cls-63{stroke:#9a6491;}.cls-64,.cls-65{fill:none;}.cls-64{stroke:#df1b54;}.cls-65{stroke:#e96824;}.cls-66,.cls-72,.cls-76{font-size:8px;}.cls-66{fill:#9a6491;}.cls-67{letter-spacing:0.04em;}.cls-68{letter-spacing:0.03em;}.cls-69{letter-spacing:0.03em;}.cls-70{letter-spacing:0.02em;}.cls-71{letter-spacing:0.06em;}.cls-72{fill:#df1b54;}.cls-73{letter-spacing:0.04em;}.cls-74{letter-spacing:0.06em;}.cls-75{letter-spacing:0.03em;}.cls-76{fill:#e96824;}.cls-77{letter-spacing:0.03em;}.cls-78{letter-spacing:0.05em;}</style></defs><title>final</title><text class="cls-1" transform="translate(16.92 39.18)"><tspan class="cls-2">T</tspan><tspan x="4.47" y="0">o </tspan><tspan class="cls-3" x="12.72" y="0">s</tspan><tspan class="cls-4" x="17.79" y="0">e</tspan><tspan x="23.2" y="0">e </tspan><tspan class="cls-5" x="31.08" y="0">w</tspan><tspan class="cls-6" x="40.59" y="0">h</tspan><tspan class="cls-7" x="47.21" y="0">a</tspan><tspan x="53.32" y="0">t </tspan><tspan class="cls-8" x="60.95" y="0">i</tspan><tspan x="63.88" y="0">s </tspan><tspan class="cls-9" x="71.63" y="0">t</tspan><tspan class="cls-10" x="76.82" y="0">h</tspan><tspan x="83.25" y="0">e </tspan><tspan class="cls-11" x="91.13" y="0">c</tspan><tspan class="cls-6" x="96.26" y="0">h</tspan><tspan class="cls-12" x="102.88" y="0">a</tspan><tspan class="cls-11" x="109.12" y="0">ng</tspan><tspan class="cls-13" x="121.25" y="0">e</tspan><tspan x="126.96" y="0">s </tspan><tspan class="cls-14" x="134.71" y="0">f</tspan><tspan class="cls-15" x="139.85" y="0">o</tspan><tspan x="145.47" y="0">r </tspan><tspan class="cls-16" x="153.35" y="0">T</tspan><tspan class="cls-17" x="159.83" y="0">V</tspan><tspan class="cls-18" x="165.57" y="0">-</tspan><tspan class="cls-7" x="170.5" y="0">ra</tspan><tspan class="cls-19" x="181.73" y="0">t</tspan><tspan class="cls-20" x="187.09" y="0">i</tspan><tspan class="cls-11" x="190.19" y="0">n</tspan><tspan x="196.7" y="0">g </tspan><tspan class="cls-12" x="205.08" y="0">o</tspan><tspan x="210.7" y="0">r </tspan><tspan class="cls-9" x="0" y="15.01">t</tspan><tspan class="cls-10" x="5.19" y="15.01">h</tspan><tspan x="11.62" y="15.01">e </tspan><tspan class="cls-21" x="19.5" y="15.01">p</tspan><tspan class="cls-22" x="25.34" y="15.01">e</tspan><tspan x="30.84" y="15.01">r</tspan><tspan class="cls-23" x="35.6" y="15.01">c</tspan><tspan class="cls-24" x="40.8" y="15.01">e</tspan><tspan class="cls-25" x="46.35" y="15.01">n</tspan><tspan class="cls-26" x="53.21" y="15.01">t</tspan><tspan class="cls-27" x="58.36" y="15.01">a</tspan><tspan class="cls-11" x="64.37" y="15.01">g</tspan><tspan x="69.99" y="15.01">e </tspan><tspan class="cls-10" x="77.87" y="15.01">o</tspan><tspan x="83.55" y="15.01">f </tspan><tspan class="cls-28" x="91.18" y="15.01">e</tspan><tspan class="cls-29" x="96.99" y="15.01">a</tspan><tspan class="cls-30" x="103.06" y="15.01">c</tspan><tspan x="108.19" y="15.01">h </tspan><tspan class="cls-31" x="117.2" y="15.01">T</tspan><tspan class="cls-17" x="123.68" y="15.01">V</tspan><tspan class="cls-32" x="129.42" y="15.01">-</tspan><tspan class="cls-7" x="134.35" y="15.01">ra</tspan><tspan class="cls-19" x="145.58" y="15.01">t</tspan><tspan class="cls-20" x="150.95" y="15.01">i</tspan><tspan class="cls-11" x="154.05" y="15.01">n</tspan><tspan class="cls-33" x="160.55" y="15.01">g</tspan><tspan x="166.37" y="15.01">. M</tspan><tspan class="cls-15" x="183.5" y="15.01">o</tspan><tspan class="cls-34" x="189.12" y="15.01">re </tspan><tspan class="cls-35" x="201.75" y="15.01">v</tspan><tspan class="cls-36" x="208.15" y="15.01">i</tspan><tspan class="cls-37" x="211.05" y="15.01">o</tspan><tspan class="cls-38" x="216.71" y="15.01">l</tspan><tspan class="cls-24" x="219.54" y="15.01">e</tspan><tspan class="cls-39" x="225.09" y="15.01">n</tspan><tspan class="cls-33" x="231.95" y="15.01">t</tspan><tspan x="237.01" y="15.01">? M</tspan><tspan class="cls-40" x="256.9" y="15.01">o</tspan><tspan x="262.52" y="15.01">re </tspan><tspan class="cls-41" x="275.15" y="15.01">ra</tspan><tspan class="cls-42" x="286.38" y="15.01">t</tspan><tspan class="cls-43" x="291.15" y="15.01">e</tspan><tspan x="296.69" y="15.01">d G </tspan><tspan class="cls-12" x="314.45" y="15.01">o</tspan><tspan x="320.06" y="15.01">r N</tspan><tspan class="cls-44" x="335.45" y="15.01">C</tspan><tspan x="339.83" y="15.01">1</tspan><tspan class="cls-45" x="346.96" y="15.01">7</tspan><tspan x="353.46" y="15.01">?</tspan></text><polyline class="cls-46" points="90.16 68.73 90.16 245.34 325.33 245.34"/><text class="cls-47" transform="translate(46.36 151.59)"><tspan class="cls-48">A</tspan><tspan class="cls-49" x="5.83" y="0">u</tspan><tspan class="cls-50" x="9.78" y="0">d</tspan><tspan class="cls-51" x="13.85" y="0">i</tspan><tspan class="cls-52" x="15.81" y="0">e</tspan><tspan class="cls-53" x="19.78" y="0">n</tspan><tspan class="cls-54" x="24.46" y="0">c</tspan><tspan x="28.18" y="0">e </tspan><tspan class="cls-55" x="0" y="10.72">R</tspan><tspan class="cls-56" x="5.72" y="10.72">a</tspan><tspan class="cls-57" x="10.09" y="10.72">t</tspan><tspan class="cls-58" x="13.92" y="10.72">i</tspan><tspan class="cls-59" x="16.14" y="10.72">n</tspan><tspan x="20.78" y="10.72">g</tspan></text><text class="cls-47" transform="translate(196.18 260.48)"><tspan class="cls-60">Y</tspan><tspan class="cls-61" x="4.32" y="0">e</tspan><tspan class="cls-62" x="8.47" y="0">a</tspan><tspan x="12.95" y="0">r</tspan></text><polyline class="cls-63" points="104.17 231.19 113.08 197.27 141.91 136.21 153.36 175.65 180.5 136.21 207.63 206.6 215.27 118.83 248.34 99.75 259.79 106.53 280.57 150 288.2 134.09 295.83 162.93 304.74 150 311.94 172.68 320.85 110.35"/><polyline class="cls-64" points="106.29 153.6 119.02 141.72 133.86 117.56 141.06 128.58 160.15 105.68 182.19 99.75 196.18 116.28 216.12 184.55 236.47 142.15 255.55 174.38 264.88 169.32 280.14 126.04 287.78 120.1 299.22 120.1 306.86 121.37 325.33 134.94"/><polyline class="cls-65" points="106.29 178.62 131.74 191.34 143.18 184.97 155.48 161.65 181.35 169.32 205.51 169.32 215.81 167.59 237.32 157.04 252.16 142.15 259.79 142.15 276.75 166.74 287.35 166.74 296.26 152.33 306.43 186.67 322.55 204.06"/><text class="cls-66" transform="translate(324.67 112.77)"><tspan class="cls-67">t</tspan><tspan class="cls-68" x="3.22" y="0">o</tspan><tspan x="6.76" y="0">p </tspan><tspan class="cls-69" x="12.2" y="0">ra</tspan><tspan class="cls-70" x="19.38" y="0">t</tspan><tspan class="cls-71" x="22.43" y="0">e</tspan><tspan x="25.97" y="0">d</tspan></text><text class="cls-72" transform="translate(326.67 136.46)"><tspan class="cls-73">l</tspan><tspan class="cls-74" x="1.9" y="0">o</tspan><tspan x="5.66" y="0">w </tspan><tspan class="cls-75" x="13.42" y="0">ra</tspan><tspan class="cls-70" x="20.61" y="0">t</tspan><tspan class="cls-71" x="23.66" y="0">e</tspan><tspan x="27.2" y="0">d</tspan></text><text class="cls-76" transform="translate(326.67 205.44)">m<tspan class="cls-71" x="5.76" y="0">e</tspan><tspan class="cls-77" x="9.3" y="0">d</tspan><tspan class="cls-78" x="12.94" y="0">i</tspan><tspan class="cls-77" x="14.93" y="0">u</tspan><tspan x="18.41" y="0">m </tspan><tspan class="cls-75" x="26.17" y="0">ra</tspan><tspan class="cls-70" x="33.35" y="0">t</tspan><tspan class="cls-71" x="36.4" y="0">e</tspan><tspan x="39.94" y="0">d</tspan></text></svg>