<svg id="Layer_1" data-name="Layer 1" xmlns="http://www.w3.org/2000/svg" viewBox="0 0 400 300"><defs><style>.cls-1{fill:#fff;stroke:#231f20;stroke-miterlimit:10;stroke-width:0.89px;}.cls-2{font-size:8.93px;fill:#231f20;}.cls-2,.cls-47{font-family:MarkerFelt-Thin, Marker Felt;font-weight:200;}.cls-3{letter-spacing:0.03em;}.cls-4{letter-spacing:0.03em;}.cls-5{letter-spacing:0.02em;}.cls-6{letter-spacing:0.02em;}.cls-7{letter-spacing:0.06em;}.cls-8{letter-spacing:0.03em;}.cls-9{letter-spacing:0.04em;}.cls-10{letter-spacing:0.07em;}.cls-11{letter-spacing:0.03em;}.cls-12{letter-spacing:0.07em;}.cls-13{letter-spacing:0.05em;}.cls-14{letter-spacing:0.03em;}.cls-15{letter-spacing:-0.11em;}.cls-16{letter-spacing:0.08em;}.cls-17{letter-spacing:0.04em;}.cls-18{fill:#ed1c24;opacity:0.78;}.cls-19{letter-spacing:0.06em;}.cls-20{letter-spacing:0.05em;}.cls-21{letter-spacing:0.03em;}.cls-22{letter-spacing:0.05em;}.cls-23{letter-spacing:0.06em;}.cls-24{letter-spacing:0.06em;}.cls-25{letter-spacing:0.05em;}.cls-26{letter-spacing:0.04em;}.cls-27{letter-spacing:0.03em;}.cls-28{letter-spacing:0.04em;}.cls-29{letter-spacing:0.06em;}.cls-30{letter-spacing:0.04em;}.cls-31{letter-spacing:0.03em;}.cls-32{letter-spacing:0.03em;}.cls-33{letter-spacing:0.04em;}.cls-34{letter-spacing:0.06em;}.cls-35{letter-spacing:0.05em;}.cls-36{letter-spacing:0.03em;}.cls-37{letter-spacing:0.02em;}.cls-38{letter-spacing:0.07em;}.cls-39{letter-spacing:0.02em;}.cls-40{letter-spacing:0.05em;}.cls-41{letter-spacing:0.04em;}.cls-42{letter-spacing:0.04em;}.cls-43{letter-spacing:0.06em;}.cls-44{letter-spacing:0.04em;}.cls-45{letter-spacing:0.02em;}.cls-46{letter-spacing:0.08em;}.cls-47{font-size:12.51px;fill:#78374a;}.cls-48{letter-spacing:-0.12em;}.cls-49{letter-spacing:0.04em;}.cls-50{letter-spacing:0.05em;}.cls-51{letter-spacing:0.04em;}.cls-52{letter-spacing:0.06em;}.cls-53{letter-spacing:0.03em;}.cls-54{letter-spacing:0.05em;}.cls-55{letter-spacing:0.05em;}.cls-56{letter-spacing:0.04em;}.cls-57{letter-spacing:0.03em;}.cls-58{letter-spacing:0.04em;}.cls-59{letter-spacing:0.02em;}.cls-60{letter-spacing:0.05em;}.cls-61{letter-spacing:0.07em;}.cls-62{letter-spacing:0.02em;}.cls-63{letter-spacing:0.04em;}.cls-64{letter-spacing:0.06em;}.cls-65{letter-spacing:0.06em;}.cls-66{letter-spacing:0.03em;}.cls-67{letter-spacing:0.04em;}.cls-68{letter-spacing:0.04em;}.cls-69{letter-spacing:0.05em;}.cls-70{letter-spacing:0.05em;}.cls-71{letter-spacing:0.07em;}.cls-72{letter-spacing:0.05em;}.cls-73{letter-spacing:0.06em;}.cls-74{letter-spacing:0.04em;}.cls-75{letter-spacing:0.02em;}.cls-76{letter-spacing:0.06em;}.cls-77{letter-spacing:0.02em;}.cls-78{letter-spacing:0.03em;}.cls-79{letter-spacing:0.04em;}.cls-80{letter-spacing:0.06em;}.cls-81{letter-spacing:0.04em;}.cls-82{letter-spacing:0.04em;}.cls-83{letter-spacing:0.03em;}.cls-84{letter-spacing:0.03em;}.cls-85{letter-spacing:0.02em;}.cls-86{letter-spacing:0.08em;}.cls-87{letter-spacing:-0.06em;}.cls-88{letter-spacing:0.02em;}.cls-89{letter-spacing:0.02em;}.cls-90{letter-spacing:0.06em;}.cls-91{letter-spacing:0.08em;}.cls-92{letter-spacing:0.03em;}.cls-93{letter-spacing:0.04em;}.cls-94{letter-spacing:0.05em;}.cls-95{letter-spacing:0.03em;}.cls-96{letter-spacing:0.08em;}.cls-97{letter-spacing:0.06em;}.cls-98{letter-spacing:0.04em;}.cls-99{letter-spacing:0.02em;}.cls-100{letter-spacing:0.03em;}.cls-101{letter-spacing:0.03em;}.cls-102{letter-spacing:0.07em;}.cls-103{letter-spacing:0.05em;}.cls-104{letter-spacing:0.03em;}.cls-105{letter-spacing:0.04em;}</style></defs><title>final</title><polyline class="cls-1" points="63.74 77.32 63.74 253.93 298.92 253.93"/><text class="cls-2" transform="translate(19.95 160.17)"><tspan class="cls-3">A</tspan><tspan class="cls-4" x="5.83" y="0">u</tspan><tspan class="cls-5" x="9.78" y="0">d</tspan><tspan class="cls-6" x="13.85" y="0">i</tspan><tspan class="cls-7" x="15.81" y="0">e</tspan><tspan class="cls-8" x="19.78" y="0">n</tspan><tspan class="cls-9" x="24.46" y="0">c</tspan><tspan x="28.18" y="0">e </tspan><tspan class="cls-10" x="0" y="10.72">R</tspan><tspan class="cls-11" x="5.72" y="10.72">a</tspan><tspan class="cls-12" x="10.09" y="10.72">t</tspan><tspan class="cls-13" x="13.92" y="10.72">i</tspan><tspan class="cls-14" x="16.14" y="10.72">n</tspan><tspan x="20.78" y="10.72">g</tspan></text><text class="cls-2" transform="translate(171.58 268.16)"><tspan class="cls-15">Y</tspan><tspan class="cls-16" x="4.32" y="0">e</tspan><tspan class="cls-17" x="8.47" y="0">a</tspan><tspan x="12.95" y="0">r</tspan></text><circle class="cls-18" cx="100.74" cy="231.27" r="9.78"/><circle class="cls-18" cx="172.6" cy="211.81" r="9.78"/><circle class="cls-18" cx="172.6" cy="224.88" r="9.78"/><circle class="cls-18" cx="136.56" cy="221.48" r="9.78"/><circle class="cls-18" cx="136.56" cy="139.16" r="9.78"/><circle class="cls-18" cx="136.56" cy="92.07" r="9.78"/><circle class="cls-18" cx="136.56" cy="151.42" r="9.78"/><circle class="cls-18" cx="136.56" cy="205.31" r="9.78"/><circle class="cls-18" cx="100.74" cy="161.21" r="9.78"/><circle class="cls-18" cx="100.74" cy="221.48" r="9.78"/><circle class="cls-18" cx="205.08" cy="170.83" r="9.78"/><circle class="cls-18" cx="205.08" cy="161.21" r="9.78"/><circle class="cls-18" cx="205.08" cy="146.14" r="9.78"/><circle class="cls-18" cx="172.6" cy="126.57" r="9.78"/><circle class="cls-18" cx="172.6" cy="139.16" r="9.78"/><circle class="cls-18" cx="172.6" cy="202.03" r="9.78"/><circle class="cls-18" cx="234.8" cy="222.31" r="9.78"/><circle class="cls-18" cx="234.8" cy="235.38" r="9.78"/><circle class="cls-18" cx="267.28" cy="181.33" r="9.78"/><circle class="cls-18" cx="267.28" cy="171.71" r="9.78"/><circle class="cls-18" cx="267.28" cy="156.64" r="9.78"/><circle class="cls-18" cx="234.8" cy="137.07" r="9.78"/><circle class="cls-18" cx="234.8" cy="149.66" r="9.78"/><circle class="cls-18" cx="234.8" cy="212.53" r="9.78"/><text class="cls-2" transform="translate(255.37 108.45)"><tspan class="cls-17">S</tspan><tspan class="cls-19" x="4.74" y="0">c</tspan><tspan class="cls-20" x="8.67" y="0">a</tspan><tspan class="cls-21" x="13.2" y="0">l</tspan><tspan class="cls-22" x="15.21" y="0">e</tspan><tspan x="19.07" y="0">: </tspan><tspan class="cls-23" x="23.35" y="0">h</tspan><tspan class="cls-24" x="28.05" y="0">o</tspan><tspan x="32.25" y="0">w </tspan><tspan class="cls-25" x="40.92" y="0">m</tspan><tspan class="cls-26" x="47.8" y="0">a</tspan><tspan class="cls-27" x="52.26" y="0">n</tspan><tspan x="56.9" y="0">y </tspan><tspan class="cls-28" x="63.33" y="0">p</tspan><tspan class="cls-29" x="67.51" y="0">e</tspan><tspan class="cls-3" x="71.46" y="0">o</tspan><tspan class="cls-30" x="75.42" y="0">p</tspan><tspan class="cls-31" x="79.59" y="0">l</tspan><tspan x="81.61" y="0">e </tspan><tspan x="0" y="10.72">w</tspan><tspan class="cls-11" x="6.43" y="10.72">a</tspan><tspan class="cls-32" x="10.8" y="10.72">t</tspan><tspan class="cls-27" x="14.27" y="10.72">c</tspan><tspan class="cls-33" x="17.93" y="10.72">h</tspan><tspan class="cls-34" x="22.52" y="10.72">e</tspan><tspan x="26.48" y="10.72">d </tspan><tspan class="cls-35" x="32.56" y="10.72">t</tspan><tspan class="cls-36" x="36.26" y="10.72">h</tspan><tspan class="cls-8" x="40.74" y="10.72">i</tspan><tspan x="42.83" y="10.72">s </tspan><tspan class="cls-37" x="48.37" y="10.72">m</tspan><tspan class="cls-25" x="55.01" y="10.72">o</tspan><tspan class="cls-38" x="59.12" y="10.72">v</tspan><tspan class="cls-39" x="63.68" y="10.72">i</tspan><tspan x="65.65" y="10.72">e</tspan></text><text class="cls-2" transform="translate(287.33 163.37)"><tspan class="cls-40">C</tspan><tspan class="cls-41" x="4.5" y="0">o</tspan><tspan class="cls-42" x="8.55" y="0">l</tspan><tspan class="cls-26" x="10.68" y="0">o</tspan><tspan x="14.69" y="0">r: T</tspan><tspan class="cls-33" x="26.66" y="0">h</tspan><tspan x="31.25" y="0">e </tspan><tspan class="cls-14" x="36.88" y="0">g</tspan><tspan class="cls-43" x="40.9" y="0">e</tspan><tspan class="cls-17" x="44.87" y="0">n</tspan><tspan x="49.61" y="0">re </tspan><tspan class="cls-33" x="58.64" y="0">o</tspan><tspan x="62.69" y="0">f </tspan><tspan class="cls-35" x="0" y="10.72">t</tspan><tspan class="cls-44" x="3.71" y="10.72">h</tspan><tspan x="8.3" y="10.72">e </tspan><tspan class="cls-45" x="13.93" y="10.72">m</tspan><tspan class="cls-25" x="20.57" y="10.72">o</tspan><tspan class="cls-38" x="24.68" y="10.72">v</tspan><tspan class="cls-6" x="29.24" y="10.72">i</tspan><tspan class="cls-46" x="31.21" y="10.72">e</tspan><tspan x="35.28" y="10.72">s</tspan></text><text class="cls-47" transform="translate(16.9 40.34)"><tspan class="cls-48">T</tspan><tspan x="4.47" y="0">o </tspan><tspan class="cls-49" x="12.72" y="0">s</tspan><tspan class="cls-50" x="17.79" y="0">e</tspan><tspan x="23.2" y="0">e </tspan><tspan class="cls-51" x="31.08" y="0">w</tspan><tspan class="cls-52" x="40.59" y="0">h</tspan><tspan class="cls-53" x="47.21" y="0">a</tspan><tspan x="53.32" y="0">t </tspan><tspan class="cls-54" x="60.95" y="0">k</tspan><tspan class="cls-55" x="67.61" y="0">i</tspan><tspan class="cls-56" x="70.71" y="0">n</tspan><tspan class="cls-57" x="77.3" y="0">d</tspan><tspan x="83.08" y="0">s </tspan><tspan class="cls-58" x="90.83" y="0">o</tspan><tspan x="96.51" y="0">f </tspan><tspan class="cls-59" x="104.14" y="0">m</tspan><tspan class="cls-60" x="113.43" y="0">o</tspan><tspan class="cls-61" x="119.19" y="0">v</tspan><tspan class="cls-62" x="125.58" y="0">i</tspan><tspan x="128.33" y="0">e </tspan><tspan class="cls-63" x="136.21" y="0">a</tspan><tspan x="142.48" y="0">re </tspan><tspan class="cls-64" x="155.11" y="0">t</tspan><tspan class="cls-58" x="160.3" y="0">h</tspan><tspan x="166.73" y="0">e </tspan><tspan class="cls-59" x="174.61" y="0">m</tspan><tspan class="cls-58" x="183.9" y="0">o</tspan><tspan class="cls-65" x="189.58" y="0">s</tspan><tspan x="195.01" y="0">t </tspan><tspan class="cls-55" x="202.64" y="0">p</tspan><tspan class="cls-66" x="208.62" y="0">o</tspan><tspan class="cls-67" x="214.16" y="0">p</tspan><tspan class="cls-68" x="220.08" y="0">u</tspan><tspan class="cls-69" x="225.68" y="0">l</tspan><tspan class="cls-63" x="228.76" y="0">a</tspan><tspan x="235.02" y="0">r (</tspan><tspan class="cls-70" x="246.16" y="0">w</tspan><tspan class="cls-71" x="255.8" y="0">i</tspan><tspan class="cls-72" x="259.13" y="0">t</tspan><tspan x="264.32" y="0">h </tspan><tspan class="cls-73" x="273.32" y="0">t</tspan><tspan class="cls-74" x="278.52" y="0">h</tspan><tspan x="284.94" y="0">e </tspan><tspan class="cls-75" x="292.82" y="0">m</tspan><tspan class="cls-74" x="302.12" y="0">o</tspan><tspan class="cls-76" x="307.8" y="0">s</tspan><tspan x="313.22" y="0">t </tspan><tspan class="cls-59" x="0" y="15.01">a</tspan><tspan class="cls-57" x="6.04" y="15.01">u</tspan><tspan class="cls-77" x="11.57" y="15.01">d</tspan><tspan class="cls-62" x="17.26" y="15.01">i</tspan><tspan class="cls-65" x="20.01" y="15.01">e</tspan><tspan class="cls-78" x="25.57" y="15.01">n</tspan><tspan class="cls-79" x="32.12" y="15.01">c</tspan><tspan class="cls-80" x="37.32" y="15.01">e</tspan><tspan x="42.81" y="15.01">) </tspan><tspan class="cls-81" x="49.19" y="15.01">a</tspan><tspan class="cls-82" x="55.43" y="15.01">n</tspan><tspan x="62.03" y="15.01">d </tspan><tspan class="cls-83" x="70.53" y="15.01">h</tspan><tspan class="cls-84" x="76.8" y="15.01">i</tspan><tspan class="cls-85" x="79.62" y="15.01">g</tspan><tspan class="cls-74" x="85.15" y="15.01">h</tspan><tspan class="cls-86" x="91.58" y="15.01">e</tspan><tspan class="cls-65" x="97.29" y="15.01">s</tspan><tspan class="cls-87" x="102.71" y="15.01">t</tspan><tspan class="cls-88" x="106.49" y="15.01">-</tspan><tspan class="cls-53" x="111.42" y="15.01">ra</tspan><tspan class="cls-89" x="122.65" y="15.01">t</tspan><tspan class="cls-90" x="127.42" y="15.01">e</tspan><tspan x="132.96" y="15.01">d (</tspan><tspan class="cls-91" x="144.72" y="15.01">f</tspan><tspan class="cls-92" x="150.18" y="15.01">r</tspan><tspan class="cls-88" x="155.26" y="15.01">o</tspan><tspan x="160.69" y="15.01">m </tspan><tspan class="cls-93" x="172.82" y="15.01">t</tspan><tspan class="cls-88" x="177.85" y="15.01">o</tspan><tspan class="cls-94" x="183.28" y="15.01">m</tspan><tspan class="cls-95" x="192.91" y="15.01">a</tspan><tspan class="cls-93" x="199.02" y="15.01">t</tspan><tspan class="cls-88" x="204.05" y="15.01">o</tspan><tspan x="209.48" y="15.01">m</tspan><tspan class="cls-96" x="218.49" y="15.01">e</tspan><tspan class="cls-89" x="224.28" y="15.01">t</tspan><tspan class="cls-97" x="229.04" y="15.01">e</tspan><tspan x="234.55" y="15.01">r </tspan><tspan class="cls-98" x="242.43" y="15.01">o</tspan><tspan x="248.04" y="15.01">r </tspan><tspan class="cls-99" x="255.92" y="15.01">a</tspan><tspan class="cls-57" x="261.96" y="15.01">u</tspan><tspan class="cls-77" x="267.49" y="15.01">d</tspan><tspan class="cls-62" x="273.18" y="15.01">i</tspan><tspan class="cls-76" x="275.94" y="15.01">e</tspan><tspan class="cls-100" x="281.49" y="15.01">n</tspan><tspan class="cls-79" x="288.04" y="15.01">c</tspan><tspan x="293.25" y="15.01">e </tspan><tspan class="cls-101" x="301.13" y="15.01">ra</tspan><tspan class="cls-102" x="312.36" y="15.01">t</tspan><tspan class="cls-103" x="317.72" y="15.01">i</tspan><tspan class="cls-104" x="320.83" y="15.01">n</tspan><tspan class="cls-105" x="327.33" y="15.01">g</tspan><tspan x="333.15" y="15.01">.</tspan></text></svg>