<svg id="Layer_1" data-name="Layer 1" xmlns="http://www.w3.org/2000/svg" viewBox="0 0 400 300"><defs><style>.cls-1{fill:none;stroke:#231f20;stroke-miterlimit:10;stroke-width:0.89px;}.cls-2{font-size:8.93px;fill:#231f20;}.cls-2,.cls-56{font-family:MarkerFelt-Thin, Marker Felt;font-weight:200;}.cls-3{letter-spacing:0.03em;}.cls-4{letter-spacing:0.03em;}.cls-5{letter-spacing:0.02em;}.cls-6{letter-spacing:0.02em;}.cls-7{letter-spacing:0.06em;}.cls-8{letter-spacing:0.03em;}.cls-9{letter-spacing:0.04em;}.cls-10{letter-spacing:0.07em;}.cls-11{letter-spacing:0.03em;}.cls-12{letter-spacing:0.07em;}.cls-13{letter-spacing:0.05em;}.cls-14{letter-spacing:0.03em;}.cls-15{letter-spacing:-0.11em;}.cls-16{letter-spacing:0.08em;}.cls-17{letter-spacing:0.04em;}.cls-18{fill:#ed1c24;}.cls-18,.cls-19{opacity:0.78;}.cls-19{fill:#e7e515;}.cls-20{letter-spacing:0.06em;}.cls-21{letter-spacing:0.05em;}.cls-22{letter-spacing:0.03em;}.cls-23{letter-spacing:0.05em;}.cls-24{letter-spacing:0.05em;}.cls-25{letter-spacing:0.03em;}.cls-26{letter-spacing:0.04em;}.cls-27{letter-spacing:0.08em;}.cls-28{letter-spacing:0.07em;}.cls-29{letter-spacing:0.03em;}.cls-30{letter-spacing:0.04em;}.cls-31{letter-spacing:0.08em;}.cls-32{letter-spacing:0.06em;}.cls-33{letter-spacing:0.04em;}.cls-34{letter-spacing:0.05em;}.cls-35{letter-spacing:0.03em;}.cls-36{letter-spacing:0.05em;}.cls-37{letter-spacing:0.04em;}.cls-38{letter-spacing:0.04em;}.cls-39{letter-spacing:0.04em;}.cls-40{letter-spacing:0.05em;}.cls-41{letter-spacing:0.04em;}.cls-42{letter-spacing:0.04em;}.cls-43{letter-spacing:0.03em;}.cls-44{letter-spacing:0.03em;}.cls-45{letter-spacing:0.02em;}.cls-46{letter-spacing:0.03em;}.cls-47{letter-spacing:0.06em;}.cls-48{letter-spacing:0.05em;}.cls-49{letter-spacing:0.04em;}.cls-50{letter-spacing:0.08em;}.cls-51{letter-spacing:0.05em;}.cls-52{letter-spacing:0.07em;}.cls-53{letter-spacing:0.04em;}.cls-54{letter-spacing:0.05em;}.cls-55{letter-spacing:0.04em;}.cls-56{font-size:12.51px;fill:#78374a;}.cls-57{letter-spacing:0.03em;}.cls-58{letter-spacing:0.04em;}.cls-59{letter-spacing:0.07em;}.cls-60{letter-spacing:0.06em;}.cls-61{letter-spacing:0.04em;}.cls-62{letter-spacing:0.06em;}.cls-63{letter-spacing:0.05em;}.cls-64{letter-spacing:0.05em;}.cls-65{letter-spacing:0.04em;}.cls-66{letter-spacing:0.03em;}.cls-67{letter-spacing:0.05em;}.cls-68{letter-spacing:0.03em;}.cls-69{letter-spacing:0.07em;}.cls-70{letter-spacing:0.09em;}.cls-71{letter-spacing:0.03em;}.cls-72{letter-spacing:0.02em;}.cls-73{letter-spacing:0.03em;}.cls-74{letter-spacing:0.03em;}.cls-75{letter-spacing:0.06em;}.cls-76{letter-spacing:0.07em;}.cls-77{letter-spacing:0.03em;}.cls-78{letter-spacing:0.02em;}.cls-79{letter-spacing:0.05em;}.cls-80{letter-spacing:0.07em;}.cls-81{letter-spacing:0.02em;}.cls-82{letter-spacing:0.08em;}.cls-83{letter-spacing:0.05em;}.cls-84{letter-spacing:0.05em;}.cls-85{letter-spacing:0.04em;}.cls-86{letter-spacing:0.05em;}.cls-87{letter-spacing:0.05em;}.cls-88{letter-spacing:0.05em;}.cls-89{letter-spacing:0.04em;}.cls-90{letter-spacing:0.08em;}.cls-91{letter-spacing:0.07em;}.cls-92{letter-spacing:0.03em;}.cls-93{letter-spacing:0.04em;}.cls-94{letter-spacing:0.04em;}.cls-95{letter-spacing:0.06em;}.cls-96{letter-spacing:0.05em;}.cls-97{letter-spacing:0.04em;}.cls-98{letter-spacing:0.05em;}.cls-99{letter-spacing:0.04em;}.cls-100{letter-spacing:0.04em;}.cls-101{letter-spacing:0.05em;}.cls-102{letter-spacing:0.02em;}.cls-103{letter-spacing:0.05em;}.cls-104{letter-spacing:0.05em;}.cls-105{letter-spacing:0.07em;}.cls-106{letter-spacing:0.02em;}.cls-107{letter-spacing:0.03em;}.cls-108{letter-spacing:0.03em;}.cls-109{letter-spacing:0.06em;}.cls-110{letter-spacing:0.03em;}.cls-111{letter-spacing:0.03em;}.cls-112{letter-spacing:0.07em;}.cls-113{letter-spacing:0.05em;}</style></defs><title>final</title><polyline class="cls-1" points="63.69 74.95 63.69 251.57 298.86 251.57"/><text class="cls-2" transform="translate(19.89 157.81)"><tspan class="cls-3">A</tspan><tspan class="cls-4" x="5.83" y="0">u</tspan><tspan class="cls-5" x="9.78" y="0">d</tspan><tspan class="cls-6" x="13.85" y="0">i</tspan><tspan class="cls-7" x="15.81" y="0">e</tspan><tspan class="cls-8" x="19.78" y="0">n</tspan><tspan class="cls-9" x="24.46" y="0">c</tspan><tspan x="28.18" y="0">e </tspan><tspan class="cls-10" x="0" y="10.72">R</tspan><tspan class="cls-11" x="5.72" y="10.72">a</tspan><tspan class="cls-12" x="10.09" y="10.72">t</tspan><tspan class="cls-13" x="13.92" y="10.72">i</tspan><tspan class="cls-14" x="16.14" y="10.72">n</tspan><tspan x="20.78" y="10.72">g</tspan></text><text class="cls-2" transform="translate(171.53 265.8)"><tspan class="cls-15">Y</tspan><tspan class="cls-16" x="4.32" y="0">e</tspan><tspan class="cls-17" x="8.47" y="0">a</tspan><tspan x="12.95" y="0">r</tspan></text><circle class="cls-18" cx="101.54" cy="195.66" r="10.64"/><circle class="cls-18" cx="172.54" cy="209.45" r="9.78"/><circle class="cls-19" cx="181.38" cy="231.35" r="18.62"/><circle class="cls-18" cx="140.5" cy="185.01" r="10.64"/><circle class="cls-18" cx="124.18" cy="121.43" r="7.14"/><circle class="cls-18" cx="124.18" cy="87.06" r="7.14"/><circle class="cls-18" cx="124.18" cy="130.38" r="7.14"/><circle class="cls-18" cx="124.18" cy="169.71" r="7.14"/><circle class="cls-18" cx="98.04" cy="137.52" r="7.14"/><circle class="cls-19" cx="92.9" cy="176.37" r="19.29"/><circle class="cls-18" cx="205.02" cy="168.47" r="9.78"/><circle class="cls-18" cx="205.02" cy="158.84" r="9.78"/><circle class="cls-18" cx="189.13" cy="147.45" r="6.11"/><circle class="cls-18" cx="168.87" cy="135.24" r="6.11"/><circle class="cls-18" cx="168.87" cy="143.1" r="6.11"/><circle class="cls-18" cx="172.44" cy="194.77" r="4.89"/><circle class="cls-18" cx="234.75" cy="219.95" r="9.78"/><circle class="cls-19" cx="217.21" cy="226.48" r="16.32"/><circle class="cls-18" cx="267.23" cy="178.97" r="9.78"/><circle class="cls-18" cx="267.23" cy="169.34" r="9.78"/><circle class="cls-19" cx="267.28" cy="147.22" r="16.84"/><circle class="cls-18" cx="237.47" cy="137.44" r="7.05"/><circle class="cls-18" cx="234.75" cy="147.3" r="9.78"/><circle class="cls-19" cx="240.14" cy="204.77" r="15.17"/><text class="cls-2" transform="translate(255.31 106.08)"><tspan class="cls-17">S</tspan><tspan class="cls-20" x="4.74" y="0">c</tspan><tspan class="cls-21" x="8.67" y="0">a</tspan><tspan class="cls-22" x="13.2" y="0">l</tspan><tspan class="cls-23" x="15.21" y="0">e</tspan><tspan x="19.07" y="0">: </tspan><tspan class="cls-24" x="23.35" y="0">b</tspan><tspan class="cls-25" x="27.63" y="0">o</tspan><tspan x="31.57" y="0">x </tspan><tspan class="cls-26" x="37.47" y="0">o</tspan><tspan class="cls-27" x="41.53" y="0">f</tspan><tspan class="cls-28" x="45.44" y="0">f</tspan><tspan class="cls-29" x="49.32" y="0">i</tspan><tspan class="cls-30" x="51.35" y="0">c</tspan><tspan x="55.06" y="0">e </tspan><tspan class="cls-31" x="60.69" y="0">e</tspan><tspan class="cls-17" x="64.84" y="0">a</tspan><tspan class="cls-32" x="69.31" y="0">r</tspan><tspan class="cls-33" x="73.25" y="0">n</tspan><tspan class="cls-34" x="77.98" y="0">i</tspan><tspan class="cls-35" x="80.2" y="0">n</tspan><tspan x="84.84" y="0">g</tspan></text><text class="cls-2" transform="translate(287.27 161)"><tspan class="cls-36">C</tspan><tspan class="cls-37" x="4.5" y="0">o</tspan><tspan class="cls-38" x="8.55" y="0">l</tspan><tspan class="cls-39" x="10.68" y="0">o</tspan><tspan x="14.69" y="0">r: </tspan><tspan class="cls-21" x="22.37" y="0">c</tspan><tspan class="cls-40" x="26.19" y="0">o</tspan><tspan class="cls-41" x="30.3" y="0">u</tspan><tspan class="cls-29" x="34.3" y="0">l</tspan><tspan x="36.33" y="0">d </tspan><tspan class="cls-42" x="42.4" y="0">b</tspan><tspan x="46.58" y="0">e </tspan><tspan class="cls-43" x="52.2" y="0">h</tspan><tspan class="cls-44" x="56.68" y="0">i</tspan><tspan class="cls-45" x="58.7" y="0">g</tspan><tspan class="cls-11" x="62.65" y="0">h</tspan><tspan class="cls-46" x="67.11" y="0">l</tspan><tspan class="cls-22" x="69.2" y="0">i</tspan><tspan class="cls-45" x="71.22" y="0">g</tspan><tspan class="cls-47" x="75.17" y="0">h</tspan><tspan x="79.88" y="0">t </tspan><tspan class="cls-48" x="85.33" y="0">t</tspan><tspan class="cls-49" x="89.04" y="0">h</tspan><tspan x="93.63" y="0">e </tspan><tspan class="cls-37" x="0" y="10.72">o</tspan><tspan class="cls-29" x="4.05" y="10.72">n</tspan><tspan class="cls-50" x="8.67" y="10.72">e</tspan><tspan x="12.74" y="10.72">s </tspan><tspan class="cls-51" x="18.28" y="10.72">w</tspan><tspan class="cls-52" x="25.17" y="10.72">i</tspan><tspan class="cls-48" x="27.54" y="10.72">t</tspan><tspan x="31.25" y="10.72">h </tspan><tspan class="cls-53" x="37.68" y="10.72">g</tspan><tspan class="cls-36" x="41.81" y="10.72">o</tspan><tspan class="cls-54" x="45.96" y="10.72">o</tspan><tspan x="50.09" y="10.72">d </tspan><tspan class="cls-24" x="56.17" y="10.72">b</tspan><tspan class="cls-25" x="60.45" y="10.72">o</tspan><tspan x="64.39" y="10.72">x </tspan><tspan class="cls-26" x="70.29" y="10.72">o</tspan><tspan class="cls-27" x="74.34" y="10.72">f</tspan><tspan class="cls-28" x="78.25" y="10.72">f</tspan><tspan class="cls-29" x="82.13" y="10.72">i</tspan><tspan class="cls-30" x="84.16" y="10.72">c</tspan><tspan x="87.88" y="10.72">e </tspan><tspan class="cls-55" x="0" y="21.44">p</tspan><tspan class="cls-32" x="4.17" y="21.44">e</tspan><tspan class="cls-49" x="8.1" y="21.44">r</tspan><tspan class="cls-51" x="11.89" y="21.44">f</tspan><tspan class="cls-39" x="15.56" y="21.44">o</tspan><tspan class="cls-23" x="19.58" y="21.44">r</tspan><tspan class="cls-40" x="23.43" y="21.44">m</tspan><tspan class="cls-39" x="30.31" y="21.44">a</tspan><tspan class="cls-8" x="34.76" y="21.44">n</tspan><tspan class="cls-30" x="39.45" y="21.44">c</tspan><tspan x="43.16" y="21.44">e</tspan></text><text class="cls-56" transform="translate(21.94 33.17)"><tspan class="cls-57">A</tspan><tspan class="cls-58" x="8.08" y="0">n</tspan><tspan class="cls-59" x="14.68" y="0">o</tspan><tspan class="cls-60" x="20.69" y="0">t</tspan><tspan class="cls-61" x="25.88" y="0">h</tspan><tspan class="cls-62" x="32.31" y="0">e</tspan><tspan x="37.81" y="0">r </tspan><tspan class="cls-63" x="45.69" y="0">p</tspan><tspan class="cls-61" x="51.67" y="0">o</tspan><tspan class="cls-64" x="57.35" y="0">s</tspan><tspan class="cls-65" x="62.64" y="0">si</tspan><tspan class="cls-66" x="70.79" y="0">b</tspan><tspan class="cls-67" x="76.52" y="0">i</tspan><tspan class="cls-68" x="79.63" y="0">l</tspan><tspan class="cls-69" x="82.55" y="0">i</tspan><tspan class="cls-70" x="85.88" y="0">t</tspan><tspan x="91.54" y="0">y: </tspan><tspan class="cls-71" x="103.43" y="0">h</tspan><tspan class="cls-57" x="109.69" y="0">i</tspan><tspan class="cls-72" x="112.52" y="0">g</tspan><tspan class="cls-73" x="118.05" y="0">h</tspan><tspan class="cls-68" x="124.29" y="0">l</tspan><tspan class="cls-74" x="127.22" y="0">i</tspan><tspan class="cls-72" x="130.04" y="0">g</tspan><tspan class="cls-75" x="135.57" y="0">h</tspan><tspan class="cls-76" x="142.18" y="0">t</tspan><tspan class="cls-67" x="147.54" y="0">i</tspan><tspan class="cls-77" x="150.64" y="0">n</tspan><tspan x="157.15" y="0">g </tspan><tspan class="cls-60" x="165.53" y="0">t</tspan><tspan class="cls-61" x="170.72" y="0">h</tspan><tspan x="177.15" y="0">e </tspan><tspan class="cls-78" x="185.03" y="0">m</tspan><tspan class="cls-79" x="194.32" y="0">o</tspan><tspan class="cls-80" x="200.08" y="0">v</tspan><tspan class="cls-81" x="206.47" y="0">i</tspan><tspan class="cls-82" x="209.22" y="0">e</tspan><tspan x="214.92" y="0">s </tspan><tspan class="cls-83" x="222.68" y="0">w</tspan><tspan class="cls-69" x="232.32" y="0">i</tspan><tspan class="cls-84" x="235.65" y="0">t</tspan><tspan x="240.84" y="0">h </tspan><tspan class="cls-85" x="249.85" y="0">g</tspan><tspan class="cls-86" x="255.62" y="0">o</tspan><tspan class="cls-87" x="261.43" y="0">o</tspan><tspan x="267.22" y="0">d </tspan><tspan class="cls-88" x="275.72" y="0">b</tspan><tspan class="cls-71" x="281.72" y="0">o</tspan><tspan x="287.23" y="0">x </tspan><tspan class="cls-89" x="295.49" y="0">o</tspan><tspan class="cls-90" x="301.16" y="0">f</tspan><tspan class="cls-91" x="306.64" y="0">f</tspan><tspan class="cls-92" x="312.07" y="0">i</tspan><tspan class="cls-93" x="314.91" y="0">c</tspan><tspan x="320.11" y="0">e </tspan><tspan class="cls-94" x="0" y="15.01">p</tspan><tspan class="cls-95" x="5.84" y="15.01">e</tspan><tspan class="cls-61" x="11.34" y="15.01">r</tspan><tspan class="cls-96" x="16.65" y="15.01">f</tspan><tspan class="cls-97" x="21.79" y="15.01">o</tspan><tspan class="cls-96" x="27.4" y="15.01">r</tspan><tspan class="cls-98" x="32.8" y="15.01">m</tspan><tspan class="cls-99" x="42.43" y="15.01">a</tspan><tspan class="cls-68" x="48.67" y="15.01">n</tspan><tspan class="cls-93" x="55.22" y="15.01">c</tspan><tspan x="60.43" y="15.01">e </tspan><tspan class="cls-99" x="68.31" y="15.01">a</tspan><tspan class="cls-100" x="74.55" y="15.01">n</tspan><tspan x="81.14" y="15.01">d </tspan><tspan class="cls-101" x="89.64" y="15.01">c</tspan><tspan class="cls-102" x="94.98" y="15.01">o</tspan><tspan class="cls-68" x="100.41" y="15.01">m</tspan><tspan class="cls-103" x="109.84" y="15.01">p</tspan><tspan class="cls-65" x="115.79" y="15.01">a</tspan><tspan x="122.05" y="15.01">re </tspan><tspan class="cls-104" x="134.68" y="15.01">w</tspan><tspan class="cls-105" x="144.33" y="15.01">i</tspan><tspan class="cls-60" x="147.66" y="15.01">t</tspan><tspan x="152.85" y="15.01">h </tspan><tspan class="cls-106" x="161.85" y="15.01">a</tspan><tspan class="cls-107" x="167.89" y="15.01">u</tspan><tspan class="cls-108" x="173.42" y="15.01">d</tspan><tspan class="cls-81" x="179.11" y="15.01">i</tspan><tspan class="cls-109" x="181.86" y="15.01">e</tspan><tspan class="cls-110" x="187.42" y="15.01">n</tspan><tspan class="cls-93" x="193.97" y="15.01">c</tspan><tspan x="199.18" y="15.01">e </tspan><tspan class="cls-111" x="207.06" y="15.01">ra</tspan><tspan class="cls-112" x="218.29" y="15.01">t</tspan><tspan class="cls-67" x="223.65" y="15.01">i</tspan><tspan class="cls-77" x="226.76" y="15.01">n</tspan><tspan class="cls-113" x="233.26" y="15.01">g</tspan><tspan x="239.08" y="15.01">.</tspan></text></svg>