<svg id="Layer_1" data-name="Layer 1" xmlns="http://www.w3.org/2000/svg" viewBox="0 0 400 300"><defs><style>.cls-1{font-size:12.51px;fill:#78374a;}.cls-1,.cls-50{font-family:MarkerFelt-Thin, Marker Felt;font-weight:200;}.cls-2{letter-spacing:-0.12em;}.cls-3{letter-spacing:0.04em;}.cls-4{letter-spacing:0.05em;}.cls-5{letter-spacing:0.04em;}.cls-6{letter-spacing:0.06em;}.cls-7{letter-spacing:0.03em;}.cls-8{letter-spacing:0.03em;}.cls-9{letter-spacing:0.06em;}.cls-10{letter-spacing:0.04em;}.cls-11{letter-spacing:0.03em;}.cls-12{letter-spacing:0.04em;}.cls-13{letter-spacing:0.08em;}.cls-14{letter-spacing:0.05em;}.cls-15{letter-spacing:0.04em;}.cls-16{letter-spacing:0.04em;}.cls-17{letter-spacing:-0.08em;}.cls-18{letter-spacing:0.02em;}.cls-19{letter-spacing:0.07em;}.cls-20{letter-spacing:0.05em;}.cls-21{letter-spacing:0.04em;}.cls-22{letter-spacing:0.06em;}.cls-23{letter-spacing:0.04em;}.cls-24{letter-spacing:0.06em;}.cls-25{letter-spacing:0.06em;}.cls-26{letter-spacing:0.05em;}.cls-27{letter-spacing:0.02em;}.cls-28{letter-spacing:0.08em;}.cls-29{letter-spacing:0.03em;}.cls-30{letter-spacing:0.03em;}.cls-31{letter-spacing:0.04em;}.cls-32{letter-spacing:0.02em;}.cls-33{letter-spacing:0.04em;}.cls-34{letter-spacing:0em;}.cls-35{letter-spacing:0.07em;}.cls-36{letter-spacing:0.03em;}.cls-37{letter-spacing:0.04em;}.cls-38{letter-spacing:0.03em;}.cls-39{letter-spacing:0.06em;}.cls-40{letter-spacing:0.04em;}.cls-41{letter-spacing:0.03em;}.cls-42{letter-spacing:0.02em;}.cls-43{letter-spacing:0.06em;}.cls-44{letter-spacing:-0.1em;}.cls-45{letter-spacing:-0.05em;}.cls-46{fill:#ee1c4e;}.cls-47{fill:#fde8ef;}.cls-48{fill:#c3e6df;}.cls-49{fill:#f4d39f;}.cls-50{font-size:9px;fill:#231f20;}</style></defs><title>final</title><text class="cls-1" transform="translate(20.69 39.57)"><tspan class="cls-2">T</tspan><tspan x="4.47" y="0">o </tspan><tspan class="cls-3" x="12.72" y="0">s</tspan><tspan class="cls-4" x="17.79" y="0">e</tspan><tspan x="23.2" y="0">e </tspan><tspan class="cls-5" x="31.08" y="0">w</tspan><tspan class="cls-6" x="40.59" y="0">h</tspan><tspan class="cls-7" x="47.21" y="0">a</tspan><tspan x="53.32" y="0">t </tspan><tspan class="cls-8" x="60.95" y="0">i</tspan><tspan x="63.88" y="0">s </tspan><tspan class="cls-9" x="71.63" y="0">t</tspan><tspan class="cls-10" x="76.82" y="0">h</tspan><tspan x="83.25" y="0">e </tspan><tspan class="cls-11" x="91.13" y="0">c</tspan><tspan class="cls-6" x="96.26" y="0">h</tspan><tspan class="cls-12" x="102.88" y="0">a</tspan><tspan class="cls-11" x="109.12" y="0">ng</tspan><tspan class="cls-13" x="121.25" y="0">e</tspan><tspan x="126.96" y="0">s </tspan><tspan class="cls-14" x="134.71" y="0">f</tspan><tspan class="cls-15" x="139.85" y="0">o</tspan><tspan x="145.47" y="0">r </tspan><tspan class="cls-16" x="153.35" y="0">T</tspan><tspan class="cls-17" x="159.83" y="0">V</tspan><tspan class="cls-18" x="165.57" y="0">-</tspan><tspan class="cls-7" x="170.5" y="0">ra</tspan><tspan class="cls-19" x="181.73" y="0">t</tspan><tspan class="cls-20" x="187.09" y="0">i</tspan><tspan class="cls-11" x="190.19" y="0">n</tspan><tspan x="196.7" y="0">g </tspan><tspan class="cls-12" x="205.08" y="0">o</tspan><tspan x="210.7" y="0">r </tspan><tspan class="cls-9" x="0" y="15.01">t</tspan><tspan class="cls-10" x="5.19" y="15.01">h</tspan><tspan x="11.62" y="15.01">e </tspan><tspan class="cls-21" x="19.5" y="15.01">p</tspan><tspan class="cls-22" x="25.34" y="15.01">e</tspan><tspan x="30.84" y="15.01">r</tspan><tspan class="cls-23" x="35.6" y="15.01">c</tspan><tspan class="cls-24" x="40.8" y="15.01">e</tspan><tspan class="cls-25" x="46.35" y="15.01">n</tspan><tspan class="cls-26" x="53.21" y="15.01">t</tspan><tspan class="cls-27" x="58.36" y="15.01">a</tspan><tspan class="cls-11" x="64.37" y="15.01">g</tspan><tspan x="69.99" y="15.01">e </tspan><tspan class="cls-10" x="77.87" y="15.01">o</tspan><tspan x="83.55" y="15.01">f </tspan><tspan class="cls-28" x="91.18" y="15.01">e</tspan><tspan class="cls-29" x="96.99" y="15.01">a</tspan><tspan class="cls-30" x="103.06" y="15.01">c</tspan><tspan x="108.19" y="15.01">h </tspan><tspan class="cls-31" x="117.2" y="15.01">T</tspan><tspan class="cls-17" x="123.68" y="15.01">V</tspan><tspan class="cls-32" x="129.42" y="15.01">-</tspan><tspan class="cls-7" x="134.35" y="15.01">ra</tspan><tspan class="cls-19" x="145.58" y="15.01">t</tspan><tspan class="cls-20" x="150.95" y="15.01">i</tspan><tspan class="cls-11" x="154.05" y="15.01">n</tspan><tspan class="cls-33" x="160.55" y="15.01">g</tspan><tspan x="166.37" y="15.01">. M</tspan><tspan class="cls-15" x="183.5" y="15.01">o</tspan><tspan class="cls-34" x="189.12" y="15.01">re </tspan><tspan class="cls-35" x="201.75" y="15.01">v</tspan><tspan class="cls-36" x="208.15" y="15.01">i</tspan><tspan class="cls-37" x="211.05" y="15.01">o</tspan><tspan class="cls-38" x="216.71" y="15.01">l</tspan><tspan class="cls-24" x="219.54" y="15.01">e</tspan><tspan class="cls-39" x="225.09" y="15.01">n</tspan><tspan class="cls-33" x="231.95" y="15.01">t</tspan><tspan x="237.01" y="15.01">? M</tspan><tspan class="cls-40" x="256.9" y="15.01">o</tspan><tspan x="262.52" y="15.01">re </tspan><tspan class="cls-41" x="275.15" y="15.01">ra</tspan><tspan class="cls-42" x="286.38" y="15.01">t</tspan><tspan class="cls-43" x="291.15" y="15.01">e</tspan><tspan x="296.69" y="15.01">d G </tspan><tspan class="cls-12" x="314.45" y="15.01">o</tspan><tspan x="320.06" y="15.01">r N</tspan><tspan class="cls-44" x="335.45" y="15.01">C</tspan><tspan x="339.83" y="15.01">1</tspan><tspan class="cls-45" x="346.96" y="15.01">7</tspan><tspan x="353.46" y="15.01">?</tspan></text><path class="cls-46" d="M133.06,152.31A54.42,54.42,0,1,1,78.65,97.9a55.54,55.54,0,0,1,45.4,24.4A56,56,0,0,1,133.06,152.31Z"/><polyline class="cls-47" points="78.65 152.31 78.65 97.9 117.08 113.91 78.83 151.37"/><polygon class="cls-48" points="78.83 151.37 95.46 204.08 129.97 170.43 78.83 151.37"/><polygon class="cls-49" points="117.08 113.91 129.97 170.43 78.83 151.37 117.08 113.91"/><path class="cls-46" d="M252.25,152.31A54.42,54.42,0,1,1,197.83,97.9a54.4,54.4,0,0,1,54.42,54.41Z"/><polyline class="cls-47" points="197.83 152.31 197.83 97.9 236.26 113.91 198.02 151.37"/><polygon class="cls-48" points="198.02 151.37 214.64 204.08 249.15 170.43 198.02 151.37"/><polygon class="cls-49" points="236.26 113.91 249.15 170.43 198.02 151.37 236.26 113.91"/><path class="cls-46" d="M368.57,152.31A54.42,54.42,0,1,1,314.15,97.9a54.4,54.4,0,0,1,54.42,54.41Z"/><polyline class="cls-47" points="314.15 152.31 314.15 97.9 352.59 113.91 314.34 151.37"/><polygon class="cls-48" points="314.34 151.37 330.97 204.08 365.48 170.43 314.34 151.37"/><polygon class="cls-49" points="352.59 113.91 365.48 170.43 314.34 151.37 352.59 113.91"/><text class="cls-50" transform="translate(63.34 236.16)">1969</text><text class="cls-50" transform="translate(197.4 236.16)">1989</text><text class="cls-50" transform="translate(314.4 236.16)">2009</text></svg>