<svg id="Layer_1" data-name="Layer 1" xmlns="http://www.w3.org/2000/svg" viewBox="0 0 400 300"><defs><style>.cls-1{fill:#c18e91;}.cls-2{fill:#848081;opacity:0.81;}.cls-3{fill:#ed1d24;}.cls-4{fill:#146032;}.cls-5{fill:#b3303b;}.cls-6{fill:#cd2027;}</style></defs><title>final</title><rect class="cls-1" width="400" height="300"/><path class="cls-2" d="M88.84,215.62a81.05,81.05,0,0,0-21.08,9.74C62.63,228.68,54.36,234,55.3,237c.86,2.74,8.7,1.29,37.38-.39,12.23-.72,22.1-1.11,34.77-4.8A40.17,40.17,0,0,0,143,224c3.11-2.63,10.65-9,9.26-13C149.26,202.33,107.32,210.34,88.84,215.62Z"/><path class="cls-3" d="M80.91,128.77C66.84,144.91,67.84,164.3,68,166.89c1.72,25.47,21.87,39.49,26.34,42.6a63.37,63.37,0,0,0,34.76,11.21,62.45,62.45,0,0,0,34.2-9.53,60.4,60.4,0,0,0,22.42-25.78c2-4.58,9.67-23.76.56-44.85-8-18.5-23.7-26.39-28.59-28.59-19.3-8.65-37.18-3.34-46.53-.56C102.61,113.94,90.76,117.46,80.91,128.77Z"/><path class="cls-4" d="M108.47,95.64c2.54,1.9,4.11,5.73,3.1,7.08-1.22,1.62-5.15-1.72-10.83-.67s-9.83,5.77-9.29,6.86c.28.56,1.74-.09,4.64,0,4.43.13,9.12,1.88,9.07,3.09s-5,1.13-13,4.42c-2.79,1.15-7.08,2.91-6.86,4.2s5.11,2,9.51,1.55c8.5-.94,13.37-6.18,15.69-4.2.55.46.67,1.09.89,2.21.86,4.44-2.72,7.35-1.77,8.62s5-.3,7.07-1.33c1.45-.71,7.65-3.75,8.4-9.06.31-2.2-.55-3.19.22-4,1.52-1.56,5.12,2,11,2.43,5.38.38,5.64-2.33,15-3.53,3.68-.47,6.21-.39,6.41-1.33s-2.53-2.44-5.08-3.76c-4.87-2.5-7.31-3.75-10.39-3.75-5.47,0-8.91,3.56-10.17,2.21-.63-.68-.22-2,.22-3.54.3-1,1-3.25,2.88-4.2,1.45-.73,2.78-.27,2.87-.66s-1.59-1.15-3.76-2.21c-5.15-2.54-5.16-3.32-6.19-3.1-2.89.63-2,6.68-6.63,9.29-.58.33-2.4,1.36-3.75.66s-.7-2.36-2.44-6.85c-1-2.73-1.52-2.69-2.21-5.09-.22-.77-.28-1.16-.65-1.42-1.72-1.19-7.07,2.34-6.66,4.26C106,94.64,107,94.57,108.47,95.64Z"/><path class="cls-5" d="M126.24,174.32c-1.74-6.08,3.3-12.35,8.84-19.06,5.43-6.56,23.32-28.21,35.73-23.14,5.38,2.2,7.48,8.48,8.85,12.59,8.07,24.15-6.91,55.84-19.4,56.15-4.67.11-4.6-4.28-20.07-15C131.16,179.65,127.46,178.6,126.24,174.32Z"/><path class="cls-6" d="M159.82,153.84c.31-3.23-.49-6.41,1.77-9.94,2-3.13,6-5.94,8.52-4.91,3.74,1.54,1,11.55,4.5,13.08,4.15,1.84,12.42-5.59,18.44-11.24,15.22-14.28,17.73-22.57,23.74-21.94,5.28.56,10.07,7.66,10.77,14a15.53,15.53,0,0,1-1.16,7.93c-4.16,9.47-16.34,10.08-16.09,14,.16,2.56,5.65,5.48,10.35,4.58,8.3-1.61,10.11-14.34,13.4-13.79s7.25,14.44,1.29,22.08-16.85,2.09-25.48,11.16c-5.39,5.67-4.59,11.49-9.55,12.78-4.25,1.1-9.79-1.88-11.86-6-2.94-5.92,1.63-13.22.67-13.69-1.65-.8-10.51,23.16-19.82,22.62-5.05-.29-10.07-7.8-9.93-14.4.19-9.83,11.79-16.23,10.82-17.58-1.43-2-26.46,13-27.29,11.82C142.35,173.51,158.67,166,159.82,153.84Z"/></svg>